<?xml version="1.0" ?>
<!-- Uploaded to: SVG Repo, www.svgrepo.com, Generator: SVG Repo Mixer Tools -->
<svg fill="#000000" width="800px" height="800px" viewBox="0 0 512 512" version="1.1" xml:space="preserve" xmlns="http://www.w3.org/2000/svg" xmlns:xlink="http://www.w3.org/1999/xlink">
<g id="_x30_7_x2C__Analytics_x2C__laptop_x2C__statistics_x2C__web_x2C__computer">
<g id="XMLID_858_">
<g id="XMLID_197_">
<path d="M351,237.458h-70c-1.788,0-3.439-0.955-4.332-2.503l-26.627-46.209     c-0.983-1.706-0.874-3.829,0.279-5.424l20.793-28.791c0.94-1.301,2.448-2.072,4.054-2.072h21.666     c1.605,0,3.113,0.771,4.054,2.073l54.167,75c1.099,1.522,1.253,3.532,0.398,5.204C354.597,236.407,352.878,237.458,351,237.458z      M283.89,227.458h57.331l-46.944-65h-16.553l-17.403,24.097L283.89,227.458z" id="XMLID_699_"/>
</g>
<g id="XMLID_196_">
<path d="M281,237.458H151c-1.786,0-3.436-0.952-4.329-2.498s-0.895-3.451-0.003-4.999l51.861-90     c0.893-1.549,2.544-2.503,4.332-2.503h26.277c1.788,0,3.439,0.955,4.332,2.503l25.234,43.791l0,0l26.627,46.209     c0.892,1.547,0.891,3.453-0.003,4.999S282.785,237.458,281,237.458z M159.652,227.458h112.697l-46.1-80h-20.498L159.652,227.458z     " id="XMLID_696_"/>
</g>
<g id="XMLID_195_">
<path d="M371,237.458H131c-2.761,0-5-2.239-5-5s2.239-5,5-5h240c2.762,0,5,2.239,5,5     S373.762,237.458,371,237.458z" id="XMLID_695_"/>
</g>
<g id="XMLID_194_">
<path d="M181,312.458h-50c-2.761,0-5-2.238-5-5v-50c0-2.761,2.239-5,5-5h50c2.761,0,5,2.239,5,5v50     C186,310.22,183.761,312.458,181,312.458z M136,302.458h40v-40h-40V302.458z" id="XMLID_692_"/>
</g>
<g id="XMLID_193_">
<path d="M241,267.458h-40c-2.761,0-5-2.238-5-5s2.239-5,5-5h40c2.761,0,5,2.238,5,5S243.761,267.458,241,267.458     z" id="XMLID_691_"/>
</g>
<g id="XMLID_192_">
<path d="M241,287.458h-40c-2.761,0-5-2.238-5-5s2.239-5,5-5h40c2.761,0,5,2.238,5,5S243.761,287.458,241,287.458     z" id="XMLID_690_"/>
</g>
<g id="XMLID_191_">
<path d="M316,312.458h-50c-2.762,0-5-2.238-5-5v-50c0-2.761,2.238-5,5-5h50c2.762,0,5,2.239,5,5v50     C321,310.22,318.762,312.458,316,312.458z M271,302.458h40v-40h-40V302.458z" id="XMLID_687_"/>
</g>
<g id="XMLID_190_">
<path d="M376,267.458h-40c-2.762,0-5-2.238-5-5s2.238-5,5-5h40c2.762,0,5,2.238,5,5S378.762,267.458,376,267.458     z" id="XMLID_686_"/>
</g>
<g id="XMLID_189_">
<path d="M376,287.458h-40c-2.762,0-5-2.238-5-5s2.238-5,5-5h40c2.762,0,5,2.238,5,5S378.762,287.458,376,287.458     z" id="XMLID_685_"/>
</g>
<g id="XMLID_859_">
<g id="XMLID_860_">
<g id="XMLID_188_">
<path d="M450,412.458H62c-17.093,0-31-13.906-31-31v-18c0-17.094,13.907-31,31-31h144c2.761,0,5,2.238,5,5v15       h90v-15c0-2.762,2.238-5,5-5h144c17.094,0,31,13.906,31,31v18C481,398.552,467.094,412.458,450,412.458z M62,342.458       c-11.58,0-21,9.421-21,21v18c0,11.579,9.42,21,21,21h388c11.579,0,21-9.421,21-21v-18c0-11.579-9.421-21-21-21H311v15       c0,2.762-2.238,5-5,5H206c-2.761,0-5-2.238-5-5v-15H62z" id="XMLID_682_"/>
</g>
<g id="XMLID_187_">
<path d="M446.477,342.458c-2.762,0-5-2.238-5-5V147.28c0-20.809-16.93-37.738-37.738-37.738H108.262       c-20.809,0-37.738,16.929-37.738,37.738v190.178c0,2.762-2.239,5-5,5s-5-2.238-5-5V147.28       c0-26.323,21.415-47.738,47.738-47.738h295.477c26.323,0,47.738,21.416,47.738,47.738v190.178       C451.477,340.22,449.238,342.458,446.477,342.458z" id="XMLID_681_"/>
</g>
<g id="XMLID_186_">
<path d="M445.091,312.458H66.909c-2.761,0-5-2.238-5-5s2.239-5,5-5h378.182c2.762,0,5,2.238,5,5       S447.853,312.458,445.091,312.458z" id="XMLID_676_"/>
</g>
</g>
</g>
</g>
</g>
<g id="Layer_1"/>
</svg>